<svg width="48" height="48" viewBox="0 0 48 48" fill="none" xmlns="http://www.w3.org/2000/svg">
<path fill-rule="evenodd" clip-rule="evenodd" d="M23.6758 10.0537C23.921 9.96966 24.1908 9.98448 24.4277 10.0967L43.4277 19.0967C43.777 19.2621 44 19.6135 44 20C44 20.3864 43.777 20.7379 43.4277 20.9033L24.4277 29.9033C24.1568 30.0316 23.8432 30.0316 23.5723 29.9033L4.57227 20.9033C4.22303 20.7379 4.00001 20.3864 4 20C4 19.6135 4.22302 19.2621 4.57227 19.0967L23.5723 10.0967L23.6758 10.0537ZM7.33398 20L24 27.8935L40.665 20L24 12.1054L7.33398 20Z" fill="url(#paint0_linear_344_727)"/>
<path d="M41 35.9999C41 36.5522 40.5523 36.9999 40 36.9999C39.4477 36.9999 39 36.5522 39 35.9999V22.9999L41 22.0527V35.9999Z" fill="url(#paint1_linear_344_727)"/>
<path d="M37.6641 23.6328C37.8639 24.459 38 25.4175 38 26.4999C38 30.6666 36 33.9999 36 33.9999C36 33.9999 29 32.9999 24 37.9999C19 32.9999 12 33.9999 12 33.9999C12 33.9999 10 30.6666 10 26.4999C10 25.4176 10.1352 24.4589 10.335 23.6328L12.1924 24.5126C12.0769 25.1007 12 25.7639 12 26.4999C12 28.2749 12.4286 29.9083 12.876 31.1201C12.986 31.4179 13.096 31.6863 13.1982 31.9208C14.0206 31.9066 15.146 31.9456 16.4365 32.1494C18.6609 32.5006 21.4504 33.3549 24 35.3369C26.5496 33.3549 29.3391 32.5006 31.5635 32.1494C32.8535 31.9457 33.9785 31.9067 34.8008 31.9208C34.9031 31.6862 35.014 31.4181 35.124 31.1201C35.5714 29.9083 36 28.2749 36 26.4999C36 25.7638 35.9221 25.1007 35.8066 24.5126L37.6641 23.6328Z" fill="url(#paint2_linear_344_727)"/>
<defs>
<linearGradient id="paint0_linear_344_727" x1="24" y1="22.5" x2="24" y2="-7.45058e-07" gradientUnits="userSpaceOnUse">
<stop stop-color="white"/>
<stop offset="1" stop-color="white" stop-opacity="0"/>
</linearGradient>
<linearGradient id="paint1_linear_344_727" x1="40" y1="32.9999" x2="40" y2="17.4999" gradientUnits="userSpaceOnUse">
<stop stop-color="white"/>
<stop offset="1" stop-color="white" stop-opacity="0"/>
</linearGradient>
<linearGradient id="paint2_linear_344_727" x1="24" y1="32.9999" x2="24" y2="18.9999" gradientUnits="userSpaceOnUse">
<stop stop-color="white"/>
<stop offset="1" stop-color="white" stop-opacity="0"/>
</linearGradient>
</defs>
</svg>
