<svg width="800" height="800" viewBox="0 0 800 800" fill="none" xmlns="http://www.w3.org/2000/svg">
<path d="M393.632 16H396.608C468.352 16 535.488 35.616 592.992 69.76L591.232 68.768C651.104 103.776 699.584 152.256 733.6 210.272L734.592 212.128C767.872 268.736 787.52 336.8 787.52 409.44C787.52 582.432 676.064 729.44 521.056 782.496L518.272 783.328C516.256 783.968 513.952 784.32 511.584 784.32C506.4 784.32 501.6 782.592 497.728 779.712L497.792 779.744C493.696 776.064 491.136 770.752 491.136 764.832C491.136 764.672 491.136 764.512 491.136 764.384V764.416C491.136 763.392 491.221 750.315 491.392 725.184C491.563 700.053 491.648 677.077 491.648 656.256C491.872 653.856 492 651.104 492 648.288C492 622.944 481.664 600.032 464.992 583.488C484.768 581.536 502.624 578.272 519.968 573.728L517.536 574.272C535.872 569.152 551.872 562.336 566.72 553.728L565.728 554.272C581.984 545.312 595.744 533.92 607.072 520.416L607.264 520.192C619.168 504.96 628.48 487.04 634.144 467.552L634.432 466.432C641.12 444.576 644.96 419.456 644.96 393.44C644.96 392 644.96 390.528 644.928 389.088V389.312C644.928 388.608 644.96 387.808 644.96 387.008C644.96 347.072 629.536 310.752 604.352 283.648L604.448 283.744C609.824 269.664 612.928 253.408 612.928 236.416C612.928 215.648 608.288 196 600 178.368L600.352 179.2C596.672 178.496 592.48 178.08 588.16 178.08C577.472 178.08 567.392 180.576 558.432 184.992L558.816 184.832C540.64 191.552 525.088 199.168 510.432 208.064L511.648 207.36L492.16 219.648C462.656 211.2 428.768 206.336 393.76 206.336C358.752 206.336 324.864 211.2 292.736 220.288L295.328 219.648C289.867 215.893 282.603 211.275 273.536 205.792C261.6 198.944 247.488 192.32 232.832 186.752L230.72 186.048C221.344 181.12 210.24 178.24 198.432 178.24C194.464 178.24 190.56 178.56 186.784 179.2L187.2 179.136C179.264 195.904 174.624 215.584 174.624 236.352C174.624 253.344 177.728 269.632 183.424 284.64L183.104 283.712C157.984 310.72 142.592 347.04 142.592 386.976C142.592 387.776 142.592 388.608 142.624 389.408V389.28C142.592 390.528 142.592 391.968 142.592 393.44C142.592 419.328 146.432 444.352 153.6 467.904L153.12 466.08C159.168 486.656 168.352 504.544 180.32 520.256L180.032 519.84C191.36 533.76 205.056 545.216 220.576 553.824L221.28 554.176C235.104 562.24 251.136 569.056 268 573.824L269.472 574.176C284.384 578.176 302.24 581.44 320.512 583.264L321.984 583.392C308.192 597.088 299.008 615.392 296.896 635.808L296.864 636.192C290.24 639.424 282.528 642.048 274.496 643.744L273.824 643.872C265.632 645.504 256.256 646.432 246.624 646.432C245.92 646.432 245.216 646.432 244.512 646.432H244.608C232 646.176 220.416 642.08 210.848 635.296L211.04 635.424C199.168 627.136 189.568 616.384 182.848 603.872L182.624 603.392C176.288 592.64 167.936 583.744 158.048 576.928L157.76 576.736C150.56 571.328 142.08 567.104 132.928 564.576L132.416 564.448L122.176 562.912C121.44 562.848 120.576 562.816 119.712 562.816C115.232 562.816 110.976 563.712 107.104 565.28L107.328 565.184C104.597 566.72 103.744 568.683 104.768 571.072C106.016 573.824 107.552 576.192 109.408 578.272L109.376 578.24C111.328 580.544 113.536 582.56 115.936 584.32L116.032 584.384L119.616 586.944C128.672 591.68 136.128 598.272 141.792 606.24L141.92 606.432C148.032 614.016 153.408 622.592 157.728 631.776L158.048 632.544L163.168 644.32C167.488 657.184 175.328 667.936 185.568 675.712L185.728 675.84C195.328 683.328 206.912 688.704 219.552 691.136L220.064 691.2C230.624 693.248 242.912 694.528 255.456 694.784H255.68C257.12 694.848 258.784 694.848 260.48 694.848C268.832 694.848 277.024 694.176 285.024 692.864L284.16 692.992L295.936 690.944C295.936 703.936 296.021 719.061 296.192 736.32C296.363 753.579 296.448 762.891 296.448 764.256V764.704C296.448 770.624 293.888 775.936 289.792 779.616C285.984 782.464 281.184 784.192 275.968 784.192C273.568 784.192 271.264 783.84 269.12 783.168L269.28 783.2C111.552 729.152 0.192017 582.144 0.192017 409.12C0.192017 336.544 19.776 268.544 53.984 210.112L52.96 211.968C87.968 152.096 136.448 103.616 194.464 69.6L196.32 68.608C251.968 35.52 319.04 15.968 390.656 15.968H393.792H393.632V16ZM149.152 581.312C150.176 578.923 148.981 576.875 145.568 575.168C142.155 574.144 139.936 574.485 138.912 576.192C137.888 578.581 139.083 580.629 142.496 582.336C145.568 584.384 147.787 584.043 149.152 581.312ZM165.056 598.752C167.445 597.045 167.104 594.315 164.032 590.56C160.619 587.488 157.888 586.976 155.84 589.024C153.451 590.731 153.792 593.461 156.864 597.216C160.256 600.565 162.987 601.067 165.056 598.72V598.752ZM180.416 621.792C183.488 619.403 183.488 616.16 180.416 612.064C177.685 607.627 174.784 606.603 171.712 608.992C168.64 610.699 168.64 613.771 171.712 618.208C174.784 622.645 177.685 623.84 180.416 621.792ZM201.92 643.328C204.651 640.597 203.968 637.355 199.872 633.6C195.776 629.504 192.363 628.992 189.632 632.064C186.56 634.795 187.243 638.037 191.68 641.792C195.776 645.888 199.189 646.357 201.92 643.2V643.328ZM231.136 656.128C232.16 652.373 229.941 649.643 224.48 647.936C219.36 646.571 216.117 647.765 214.752 651.52C213.387 655.275 215.605 657.835 221.408 659.2C226.528 661.269 229.771 660.245 231.136 656.128ZM263.424 658.688C263.424 654.251 260.523 652.373 254.72 653.056C249.259 653.056 246.528 654.933 246.528 658.688C246.528 663.125 249.429 665.003 255.232 664.32C260.693 664.341 263.424 662.443 263.424 658.688ZM293.152 653.568C292.469 649.813 289.397 648.277 283.936 648.96C278.475 649.984 276.085 652.544 276.768 656.64C277.451 660.736 280.523 662.101 285.984 660.736C291.445 659.371 293.813 656.981 293.152 653.568Z" fill="white"/>
</svg>
